<?xml version="1.0" encoding="UTF-8" standalone="no"?>
<!-- Created with Inkscape (http://www.inkscape.org/) -->

<svg
   xmlns:dc="http://purl.org/dc/elements/1.1/"
   xmlns:cc="http://creativecommons.org/ns#"
   xmlns:rdf="http://www.w3.org/1999/02/22-rdf-syntax-ns#"
   xmlns:svg="http://www.w3.org/2000/svg"
   xmlns="http://www.w3.org/2000/svg"
   xmlns:sodipodi="http://sodipodi.sourceforge.net/DTD/sodipodi-0.dtd"
   xmlns:inkscape="http://www.inkscape.org/namespaces/inkscape"
   width="332"
   height="332"
   id="svg2"
   version="1.1"
   inkscape:version="0.91 r13725"
   sodipodi:docname="Christogram.svg">
  <defs
     id="defs4" />
  <sodipodi:namedview
     id="base"
     pagecolor="#ffffff"
     bordercolor="#666666"
     borderopacity="1.0"
     inkscape:pageopacity="0.0"
     inkscape:pageshadow="2"
     inkscape:zoom="1.4073654"
     inkscape:cx="195.29305"
     inkscape:cy="163.47561"
     inkscape:document-units="px"
     inkscape:current-layer="layer1"
     showgrid="true"
     fit-margin-top="0"
     fit-margin-left="0"
     fit-margin-right="0"
     fit-margin-bottom="0"
     inkscape:window-width="1438"
     inkscape:window-height="868"
     inkscape:window-x="1366"
     inkscape:window-y="0"
     inkscape:window-maximized="1">
    <inkscape:grid
       type="xygrid"
       id="grid3753"
       empspacing="5"
       visible="true"
       enabled="true"
       snapvisiblegridlinesonly="true"
       originx="-119px"
       originy="-469px" />
  </sodipodi:namedview>
  <metadata
     id="metadata7">
    <rdf:RDF>
      <cc:Work
         rdf:about="">
        <dc:format>image/svg+xml</dc:format>
        <dc:type
           rdf:resource="http://purl.org/dc/dcmitype/StillImage" />
        <dc:title />
      </cc:Work>
    </rdf:RDF>
  </metadata>
  <g
     inkscape:label="Camada 1"
     inkscape:groupmode="layer"
     id="layer1"
     transform="translate(-119,-251.36218)">
    <path
       style="fill:#000000;fill-opacity:1;fill-rule:evenodd;stroke:none;stroke-opacity:1"
       d="m 157.14286,262.36218 255.71428,0 c 15.03715,0 27.14286,12.10572 27.14286,27.14286 l 0,255.71429 c 0,15.03714 -12.10571,27.14285 -27.14286,27.14285 l -255.71428,0 C 142.10571,572.36218 130,560.25647 130,545.21933 l 0,-255.71429 c 0,-15.03714 12.10571,-27.14286 27.14286,-27.14286 z"
       id="rect3755" />
    <path
       style="fill:none;stroke:#000000;stroke-width:2;stroke-miterlimit:4;stroke-dasharray:none;stroke-opacity:0.99636362"
       d="m 147.14286,252.36218 275.71428,0 c 15.03715,0 27.14286,12.10572 27.14286,27.14286 l 0,275.71429 c 0,15.03714 -12.10571,27.14285 -27.14286,27.14285 l -275.71428,0 C 132.10571,582.36218 120,570.25647 120,555.21933 l 0,-275.71429 c 0,-15.03714 12.10571,-27.14286 27.14286,-27.14286 z"
       id="rect3765" />
    <path
       style="fill:#ffffff;fill-opacity:1;fill-rule:evenodd;stroke:none;stroke-opacity:1"
       d="m 143.58099,270.35245 56.1371,0 c 3.75928,0 6.78571,3.02643 6.78571,6.78571 l 0,56.42858 c 0,3.75929 -3.02643,6.78572 -6.78571,6.78572 l -56.1371,0 c -3.75929,0 -6.78572,-3.02643 -6.78572,-6.78572 l 0,-56.42858 c 0,-3.75928 3.02643,-6.78571 6.78572,-6.78571 z"
       id="rect3755-1" />
    <path
       style="fill:none;fill-opacity:1;fill-rule:evenodd;stroke:none;stroke-opacity:1"
       d="m 218.26869,270.35245 56.42857,0 c 3.75928,0 6.78571,3.02643 6.78571,6.78571 l 0,56.42857 c 0,3.75929 -3.02643,6.78572 -6.78571,6.78572 l -56.42857,0 c -3.75929,0 -6.78572,-3.02643 -6.78572,-6.78572 l 0,-56.42857 c 0,-3.75928 3.02643,-6.78571 6.78572,-6.78571 z"
       id="rect3755-1-4" />
    <path
       style="fill:#ff0000;fill-opacity:1;fill-rule:evenodd;stroke:none;stroke-opacity:1"
       d="m 293.26869,270.35245 56.42857,0 c 3.75928,0 6.78571,3.02643 6.78571,6.78571 l 0,56.42857 c 0,3.75929 -3.02643,6.78572 -6.78571,6.78572 l -56.42857,0 c -3.75929,0 -6.78572,-3.02643 -6.78572,-6.78572 l 0,-56.42857 c 0,-3.75928 3.02643,-6.78571 6.78572,-6.78571 z"
       id="rect3755-1-4-7" />
    <path
       style="fill:#ffffff;fill-opacity:1;fill-rule:evenodd;stroke:none;stroke-opacity:1"
       d="m 368.26869,270.35245 56.42857,0 c 3.75928,0 6.78571,3.02643 6.78571,6.78571 l 0,56.42857 c 0,3.75929 -3.02643,6.78572 -6.78571,6.78572 l -56.42857,0 c -3.75929,0 -6.78572,-3.02643 -6.78572,-6.78572 l 0,-56.42857 c 0,-3.75928 3.02643,-6.78571 6.78572,-6.78571 z"
       id="rect3755-1-4-7-9" />
    <path
       style="fill:#ffffff;fill-opacity:1;fill-rule:evenodd;stroke:none;stroke-opacity:1"
       d="m 143.0299,345.64441 56.1371,0 c 3.75928,0 6.78571,3.02643 6.78571,6.78571 l 0,56.42858 c 0,3.75929 -3.02643,6.78572 -6.78571,6.78572 l -56.1371,0 c -3.75929,0 -6.78571,-3.02643 -6.78571,-6.78572 l 0,-56.42858 c 0,-3.75928 3.02642,-6.78571 6.78571,-6.78571 z"
       id="rect3755-1-0" />
    <path
       style="fill:#ff0000;fill-opacity:1;fill-rule:evenodd;stroke:none;stroke-opacity:1"
       d="m 217.7176,345.64441 56.42857,0 c 3.75929,0 6.78571,3.02643 6.78571,6.78571 l 0,56.42858 c 0,3.75928 -3.02642,6.78571 -6.78571,6.78571 l -56.42857,0 c -3.75929,0 -6.78572,-3.02643 -6.78572,-6.78571 l 0,-56.42858 c 0,-3.75928 3.02643,-6.78571 6.78572,-6.78571 z"
       id="rect3755-1-4-3" />
    <path
       style="fill:none;fill-opacity:1;fill-rule:evenodd;stroke:none;stroke-opacity:1"
       d="m 292.7176,345.64441 56.42857,0 c 3.75929,0 6.78571,3.02643 6.78571,6.78571 l 0,56.42858 c 0,3.75928 -3.02642,6.78571 -6.78571,6.78571 l -56.42857,0 c -3.75929,0 -6.78572,-3.02643 -6.78572,-6.78571 l 0,-56.42858 c 0,-3.75928 3.02643,-6.78571 6.78572,-6.78571 z"
       id="rect3755-1-4-7-2" />
    <path
       style="fill:#ffffff;fill-opacity:1;fill-rule:evenodd;stroke:none;stroke-opacity:1"
       d="m 367.7176,345.64441 56.42857,0 c 3.75929,0 6.78571,3.02643 6.78571,6.78571 l 0,56.42858 c 0,3.75928 -3.02642,6.78571 -6.78571,6.78571 l -56.42857,0 c -3.75929,0 -6.78572,-3.02643 -6.78572,-6.78571 l 0,-56.42858 c 0,-3.75928 3.02643,-6.78571 6.78572,-6.78571 z"
       id="rect3755-1-4-7-9-3" />
    <path
       style="fill:#ffffff;fill-opacity:1;fill-rule:evenodd;stroke:none;stroke-opacity:1"
       d="m 143.13456,420.96069 56.1371,0 c 3.75928,0 6.78571,3.02643 6.78571,6.78572 l 0,56.42858 c 0,3.75928 -3.02643,6.78571 -6.78571,6.78571 l -56.1371,0 c -3.75929,0 -6.78571,-3.02643 -6.78571,-6.78571 l 0,-56.42858 c 0,-3.75929 3.02642,-6.78572 6.78571,-6.78572 z"
       id="rect3755-1-0-1" />
    <path
       style="fill:#000000;fill-opacity:1;fill-rule:evenodd;stroke:none;stroke-opacity:1"
       d="m 217.82227,420.96069 56.42858,0 c 3.75928,0 6.78571,3.02643 6.78571,6.78572 l 0,56.42857 c 0,3.75928 -3.02643,6.78571 -6.78571,6.78571 l -56.42858,0 c -3.75928,0 -6.78571,-3.02643 -6.78571,-6.78571 l 0,-56.42857 c 0,-3.75929 3.02643,-6.78572 6.78571,-6.78572 z"
       id="rect3755-1-4-3-7" />
    <path
       style="fill:#ff0000;fill-opacity:1;fill-rule:evenodd;stroke:none;stroke-opacity:1"
       d="m 292.82224,420.96069 56.42858,0 c 3.75928,0 6.78571,3.02643 6.78571,6.78572 l 0,56.42857 c 0,3.75928 -3.02643,6.78571 -6.78571,6.78571 l -56.42858,0 c -3.75928,0 -6.78571,-3.02643 -6.78571,-6.78571 l 0,-56.42857 c 0,-3.75929 3.02643,-6.78572 6.78571,-6.78572 z"
       id="rect3755-1-4-7-2-1" />
    <path
       style="fill:#ffffff;fill-opacity:1;fill-rule:evenodd;stroke:none;stroke-opacity:1"
       d="m 367.82227,420.96069 56.42858,0 c 3.75928,0 6.78571,3.02643 6.78571,6.78572 l 0,56.42857 c 0,3.75928 -3.02643,6.78571 -6.78571,6.78571 l -56.42858,0 c -3.75928,0 -6.78571,-3.02643 -6.78571,-6.78571 l 0,-56.42857 c 0,-3.75929 3.02643,-6.78572 6.78571,-6.78572 z"
       id="rect3755-1-4-7-9-3-2" />
    <path
       style="fill:#ffffff;fill-opacity:1;fill-rule:evenodd;stroke:none;stroke-opacity:1"
       d="m 143.91198,495.72589 56.1371,0 c 3.75928,0 6.78571,3.02643 6.78571,6.78572 l 0,56.42857 c 0,3.75929 -3.02643,6.78572 -6.78571,6.78572 l -56.1371,0 c -3.75929,0 -6.78571,-3.02643 -6.78571,-6.78572 l 0,-56.42857 c 0,-3.75929 3.02642,-6.78572 6.78571,-6.78572 z"
       id="rect3755-1-0-1-0" />
    <path
       style="fill:#ff0000;fill-opacity:1;fill-rule:evenodd;stroke:none;stroke-opacity:1"
       d="m 218.59969,495.72589 56.42858,0 c 3.75928,0 6.78571,3.02643 6.78571,6.78572 l 0,56.42857 c 0,3.75928 -3.02643,6.78571 -6.78571,6.78571 l -56.42858,0 c -3.75928,0 -6.78571,-3.02643 -6.78571,-6.78571 l 0,-56.42857 c 0,-3.75929 3.02643,-6.78572 6.78571,-6.78572 z"
       id="rect3755-1-4-3-7-8" />
    <path
       style="fill:#000000;fill-opacity:1;fill-rule:evenodd;stroke:none;stroke-opacity:1"
       d="m 293.59965,495.72589 56.42857,0 c 3.75929,0 6.78571,3.02643 6.78571,6.78572 l 0,56.42857 c 0,3.75928 -3.02642,6.78571 -6.78571,6.78571 l -56.42857,0 c -3.75929,0 -6.78572,-3.02643 -6.78572,-6.78571 l 0,-56.42857 c 0,-3.75929 3.02643,-6.78572 6.78572,-6.78572 z"
       id="rect3755-1-4-7-2-1-7" />
    <path
       style="fill:#fffffe;fill-opacity:1;fill-rule:evenodd;stroke:none;stroke-opacity:1"
       d="m 368.59968,495.72589 56.42857,0 c 3.75929,0 6.78571,3.02643 6.78571,6.78572 l 0,56.42857 c 0,3.75928 -3.02642,6.78571 -6.78571,6.78571 l -56.42857,0 c -3.75929,0 -6.78572,-3.02643 -6.78572,-6.78571 l 0,-56.42857 c 0,-3.75929 3.02643,-6.78572 6.78572,-6.78572 z"
       id="rect3755-1-4-7-9-3-2-2" />
    <g
       style="font-style:normal;font-variant:normal;font-weight:normal;font-stretch:normal;font-size:57.90444946px;line-height:125%;font-family:'Liberation Sans';-inkscape-font-specification:'Liberation Sans';letter-spacing:0px;word-spacing:0px;fill:#ff0000;fill-opacity:1;stroke:none;stroke-width:1px;stroke-linecap:butt;stroke-linejoin:miter;stroke-opacity:1"
       id="text4393">
      <path
         d="m 159.16672,325.27124 0,-4.32587 10.15024,0 0,-30.64864 -8.99102,6.41812 0,-4.80652 9.41513,-6.47467 4.69342,0 0,35.51171 9.69787,0 0,4.32587 -24.96564,0 z"
         style=""
         id="path4727" />
    </g>
    <g
       style="font-style:normal;font-variant:normal;font-weight:normal;font-stretch:normal;font-size:57.90444946px;line-height:125%;font-family:'Liberation Sans';-inkscape-font-specification:'Liberation Sans';letter-spacing:0px;word-spacing:0px;fill:#000000;fill-opacity:1;stroke:none;stroke-width:1px;stroke-linecap:butt;stroke-linejoin:miter;stroke-opacity:1"
       id="text4393-4">
      <path
         d="m 144.64844,400.5632 0,-4.32587 10.15024,0 0,-30.64864 -8.99102,6.41812 0,-4.80652 9.41513,-6.47467 4.69342,0 0,35.51171 9.69787,0 0,4.32587 -24.96564,0 z"
         style=""
         id="path4722" />
      <path
         d="m 172.58281,400.5632 0,-4.32587 10.15024,0 0,-30.64864 -8.99102,6.41812 0,-4.80652 9.41513,-6.47467 4.69343,0 0,35.51171 9.69786,0 0,4.32587 -24.96564,0 z"
         style=""
         id="path4724" />
    </g>
    <g
       style="font-style:normal;font-variant:normal;font-weight:normal;font-stretch:normal;font-size:57.90444946px;line-height:125%;font-family:'Liberation Sans';-inkscape-font-specification:'Liberation Sans';letter-spacing:0px;word-spacing:0px;fill:#ffffff;fill-opacity:1;stroke:none;stroke-width:1px;stroke-linecap:butt;stroke-linejoin:miter;stroke-opacity:1"
       id="text4393-4-3">
      <path
         d="m 217.3187,325.27124 0,-4.32587 10.15024,0 0,-30.64864 -8.99102,6.41812 0,-4.80652 9.41512,-6.47467 4.69343,0 0,35.51171 9.69786,0 0,4.32587 -24.96563,0 z"
         style=""
         id="path4717" />
      <path
         d="m 270.04906,316.25194 0,9.0193 -4.80652,0 0,-9.0193 -18.77371,0 0,-3.95831 18.23651,-26.85997 5.34372,0 0,26.80342 5.59819,0 0,4.01486 -5.59819,0 z m -4.80652,-25.07873 q -0.0565,0.16964 -0.79166,1.4985 -0.73511,1.32887 -1.10267,1.86607 l -10.20679,15.04158 -1.52678,2.09225 -0.45238,0.56547 14.08028,0 0,-21.06387 z"
         style=""
         id="path4719" />
    </g>
    <g
       style="font-style:normal;font-variant:normal;font-weight:normal;font-stretch:normal;font-size:57.90444946px;line-height:125%;font-family:'Liberation Sans';-inkscape-font-specification:'Liberation Sans';letter-spacing:0px;word-spacing:0px;fill:#000000;fill-opacity:1;stroke:none;stroke-width:1px;stroke-linecap:butt;stroke-linejoin:miter;stroke-opacity:1"
       id="text4393-4-3-1">
      <path
         d="m 292.31868,325.27124 0,-4.32587 10.15024,0 0,-30.64864 -8.99102,6.41812 0,-4.80652 9.41513,-6.47467 4.69342,0 0,35.51171 9.69787,0 0,4.32587 -24.96564,0 z"
         style=""
         id="path4712" />
      <path
         d="m 345.04905,316.25194 0,9.0193 -4.80652,0 0,-9.0193 -18.77371,0 0,-3.95831 18.23651,-26.85997 5.34372,0 0,26.80342 5.59818,0 0,4.01486 -5.59818,0 z m -4.80652,-25.07873 q -0.0566,0.16964 -0.79166,1.4985 -0.73512,1.32887 -1.10268,1.86607 l -10.20679,15.04158 -1.52678,2.09225 -0.45237,0.56547 14.08028,0 0,-21.06387 z"
         style=""
         id="path4714" />
    </g>
    <g
       style="font-style:normal;font-variant:normal;font-weight:normal;font-stretch:normal;font-size:57.90444946px;line-height:125%;font-family:'Liberation Sans';-inkscape-font-specification:'Liberation Sans';letter-spacing:0px;word-spacing:0px;fill:#ff0000;fill-opacity:1;stroke:none;stroke-width:1px;stroke-linecap:butt;stroke-linejoin:miter;stroke-opacity:1"
       id="text4393-4-8">
      <path
         d="m 405.474,316.25194 0,9.0193 -4.80652,0 0,-9.0193 -18.77371,0 0,-3.95831 18.23651,-26.85997 5.34372,0 0,26.80342 5.59819,0 0,4.01486 -5.59819,0 z m -4.80652,-25.07873 q -0.0566,0.16964 -0.79166,1.4985 -0.73512,1.32887 -1.10267,1.86607 l -10.20679,15.04158 -1.52678,2.09225 -0.45238,0.56547 14.08028,0 0,-21.06387 z"
         style=""
         id="path4709" />
    </g>
    <g
       style="font-style:normal;font-variant:normal;font-weight:normal;font-stretch:normal;font-size:57.90444946px;line-height:125%;font-family:'Liberation Sans';-inkscape-font-specification:'Liberation Sans';letter-spacing:0px;word-spacing:0px;fill:#000000;fill-opacity:1;stroke:none;stroke-width:1px;stroke-linecap:butt;stroke-linejoin:miter;stroke-opacity:1"
       id="text4393-4-31">
      <path
         d="m 259.09327,364.85357 q -6.10711,9.33031 -8.62347,14.61748 -2.51635,5.28718 -3.78867,10.43298 -1.24404,5.14581 -1.24404,10.65917 l -5.31545,0 q 0,-7.63389 3.2232,-16.05944 3.25147,-8.45382 10.82881,-19.45227 l -21.40316,0 0,-4.32587 26.32278,0 0,4.12795 z"
         style=""
         id="path4706" />
    </g>
    <g
       style="font-style:normal;font-variant:normal;font-weight:normal;font-stretch:normal;font-size:57.90444946px;line-height:125%;font-family:'Liberation Sans';-inkscape-font-specification:'Liberation Sans';letter-spacing:0px;word-spacing:0px;fill:#ffffff;fill-opacity:1;stroke:none;stroke-width:1px;stroke-linecap:butt;stroke-linejoin:miter;stroke-opacity:1"
       id="text4393-4-31-1">
      <path
         d="m 334.29118,387.54318 q 0,6.30502 -3.42112,9.95232 -3.42111,3.6473 -9.4434,3.6473 -6.72913,0 -10.29161,-5.00443 -3.56248,-5.00444 -3.56248,-14.56094 0,-10.34815 3.70385,-15.88979 3.70385,-5.54164 10.54607,-5.54164 9.0193,0 11.36601,8.11454 l -4.86306,0.87648 q -1.49851,-4.86306 -6.55949,-4.86306 -4.35415,0 -6.75741,4.0714 -2.37498,4.04314 -2.37498,11.73357 1.3854,-2.5729 3.90176,-3.90176 2.51636,-1.35714 5.76783,-1.35714 5.51336,0 8.73656,3.44939 3.25147,3.44938 3.25147,9.27376 z m -5.17408,0.22618 q 0,-4.32586 -2.12053,-6.67258 -2.12052,-2.34671 -5.90919,-2.34671 -3.56248,0 -5.76783,2.09225 -2.17707,2.06398 -2.17707,5.71128 0,4.6086 2.26189,7.54906 2.29017,2.94046 5.85265,2.94046 3.67558,0 5.76783,-2.4598 2.09225,-2.48809 2.09225,-6.81396 z"
         style=""
         id="path4703" />
    </g>
    <g
       style="font-style:normal;font-variant:normal;font-weight:normal;font-stretch:normal;font-size:57.90444946px;line-height:125%;font-family:'Liberation Sans';-inkscape-font-specification:'Liberation Sans';letter-spacing:0px;word-spacing:0px;fill:#000000;fill-opacity:1;stroke:none;stroke-width:1px;stroke-linecap:butt;stroke-linejoin:miter;stroke-opacity:1"
       id="text4393-4-31-1-4">
      <path
         d="m 409.30533,379.85274 q 0,10.26334 -3.7604,15.7767 -3.73212,5.51336 -10.65917,5.51336 -4.66515,0 -7.49252,-1.95088 -2.79909,-1.97915 -4.01486,-6.36157 l 4.86307,-0.76339 q 1.52678,4.97616 6.72913,4.97616 4.38242,0 6.78568,-4.0714 2.40326,-4.07141 2.51636,-11.62048 -1.13095,2.54463 -3.87349,4.09969 -2.74255,1.52677 -6.02229,1.52677 -5.372,0 -8.59519,-3.67557 -3.2232,-3.67558 -3.2232,-9.75441 0,-6.24848 3.50593,-9.81096 3.50594,-3.59076 9.75441,-3.59076 6.64431,0 10.06543,4.91962 3.42111,4.91961 3.42111,14.78712 z m -5.54164,-4.91962 q 0,-4.80652 -2.20534,-7.7187 -2.20535,-2.94046 -5.9092,-2.94046 -3.67557,0 -5.7961,2.51635 -2.12052,2.48808 -2.12052,6.75741 0,4.35414 2.12052,6.89877 2.12053,2.51635 5.73955,2.51635 2.20535,0 4.09968,-0.98957 1.89434,-1.01786 2.96874,-2.85564 1.10267,-1.83779 1.10267,-4.18451 z"
         style=""
         id="path4700" />
    </g>
    <g
       style="font-style:normal;font-variant:normal;font-weight:normal;font-stretch:normal;font-size:57.90444946px;line-height:125%;font-family:'Liberation Sans';-inkscape-font-specification:'Liberation Sans';letter-spacing:0px;word-spacing:0px;fill:#ff0000;fill-opacity:1;stroke:none;stroke-width:1px;stroke-linecap:butt;stroke-linejoin:miter;stroke-opacity:1"
       id="text4393-4-31-1-4-7">
      <path
         d="m 143.24036,550.65881 0,-4.32587 10.15024,0 0,-30.64864 -8.99102,6.41812 0,-4.80652 9.41512,-6.47467 4.69343,0 0,35.51171 9.69787,0 0,4.32587 -24.96564,0 z"
         style=""
         id="path4695" />
      <path
         d="m 200.7207,539.66036 q 0,5.51336 -3.50593,8.53865 -3.50594,3.02528 -10.00888,3.02528 -6.05056,0 -9.66959,-2.71427 -3.59075,-2.74255 -4.26932,-8.08627 l 5.2589,-0.48065 q 1.01785,7.06841 8.68001,7.06841 3.84522,0 6.02229,-1.89433 2.20535,-1.89434 2.20535,-5.62646 0,-3.25147 -2.51636,-5.06099 -2.48808,-1.83778 -7.20978,-1.83778 l -2.88391,0 0,-4.41069 2.77081,0 q 4.1845,0 6.47467,-1.80952 2.31844,-1.83779 2.31844,-5.06098 0,-3.19493 -1.89433,-5.03271 -1.86607,-1.86606 -5.56991,-1.86606 -3.36457,0 -5.45682,1.72469 -2.06398,1.72469 -2.40326,4.86307 l -5.11753,-0.39583 q 0.56547,-4.89135 4.04313,-7.63389 3.50593,-2.74255 8.99102,-2.74255 5.99402,0 9.30204,2.7991 3.33629,2.77081 3.33629,7.74698 0,3.81694 -2.1488,6.2202 -2.12052,2.37499 -6.19193,3.2232 l 0,0.11309 q 4.46724,0.48066 6.95532,2.99701 2.48808,2.51636 2.48808,6.3333 z"
         style=""
         id="path4697" />
    </g>
    <g
       style="font-style:normal;font-variant:normal;font-weight:normal;font-stretch:normal;font-size:57.90444946px;line-height:125%;font-family:'Liberation Sans';-inkscape-font-specification:'Liberation Sans';letter-spacing:0px;word-spacing:0px;fill:#000000;fill-opacity:1;stroke:none;stroke-width:1px;stroke-linecap:butt;stroke-linejoin:miter;stroke-opacity:1"
       id="text4393-4-9">
      <path
         d="m 292.15498,475.89362 0,-4.32587 10.15025,0 0,-30.64865 -8.99103,6.41812 0,-4.80652 9.41513,-6.47467 4.69343,0 0,35.51172 9.69786,0 0,4.32587 -24.96564,0 z"
         style=""
         id="path4690" />
      <path
         d="m 349.91806,455.96069 q 0,9.9806 -3.5342,15.2395 -3.50594,5.2589 -10.37644,5.2589 -6.87049,0 -10.31988,-5.23063 -3.44939,-5.23062 -3.44939,-15.26777 0,-10.26334 3.3363,-15.38087 3.36456,-5.11753 10.60262,-5.11753 7.04014,0 10.37643,5.17408 3.36456,5.17407 3.36456,15.32432 z m -5.17408,0 q 0,-8.62347 -2.00743,-12.49696 -1.97915,-3.87349 -6.55948,-3.87349 -4.69343,0 -6.75741,3.81694 -2.0357,3.81695 -2.0357,12.55351 0,8.48209 2.06398,12.41213 2.09225,3.93004 6.61603,3.93004 4.49551,0 6.58776,-4.01486 2.09225,-4.01486 2.09225,-12.32731 z"
         style=""
         id="path4692" />
    </g>
    <g
       style="font-style:normal;font-variant:normal;font-weight:normal;font-stretch:normal;font-size:57.90444946px;line-height:125%;font-family:'Liberation Sans';-inkscape-font-specification:'Liberation Sans';letter-spacing:0px;word-spacing:0px;fill:#ffffff;fill-opacity:1;stroke:none;stroke-width:1px;stroke-linecap:butt;stroke-linejoin:miter;stroke-opacity:1"
       id="text4393-4-9-9">
      <path
         d="m 217.15501,475.89362 0,-4.32587 10.15025,0 0,-30.64865 -8.99103,6.41812 0,-4.80652 9.41513,-6.47467 4.69343,0 0,35.51172 9.69786,0 0,4.32587 -24.96564,0 z"
         style=""
         id="path4685" />
      <path
         d="m 274.91809,455.96069 q 0,9.9806 -3.5342,15.2395 -3.50594,5.2589 -10.37643,5.2589 -6.8705,0 -10.31989,-5.23063 -3.44939,-5.23062 -3.44939,-15.26777 0,-10.26334 3.3363,-15.38087 3.36456,-5.11753 10.60262,-5.11753 7.04014,0 10.37643,5.17408 3.36456,5.17407 3.36456,15.32432 z m -5.17407,0 q 0,-8.62347 -2.00743,-12.49696 -1.97916,-3.87349 -6.55949,-3.87349 -4.69343,0 -6.75741,3.81694 -2.0357,3.81695 -2.0357,12.55351 0,8.48209 2.06398,12.41213 2.09225,3.93004 6.61603,3.93004 4.49551,0 6.58776,-4.01486 2.09226,-4.01486 2.09226,-12.32731 z"
         style=""
         id="path4687" />
    </g>
    <g
       style="font-style:normal;font-variant:normal;font-weight:normal;font-stretch:normal;font-size:57.90444946px;line-height:125%;font-family:'Liberation Sans';-inkscape-font-specification:'Liberation Sans';letter-spacing:0px;word-spacing:0px;fill:#000000;fill-opacity:1;stroke:none;stroke-width:1px;stroke-linecap:butt;stroke-linejoin:miter;stroke-opacity:1"
       id="text4393-4-31-1-4-7-6">
      <path
         d="m 184.7886,464.78207 q 0,5.51336 -3.50594,8.59519 -3.50593,3.08183 -10.06542,3.08183 -6.38984,0 -10.00887,-3.02528 -3.59076,-3.02528 -3.59076,-8.59519 0,-3.90177 2.23362,-6.55949 2.23362,-2.65773 5.71128,-3.2232 l 0,-0.11309 q -3.25147,-0.76339 -5.14581,-3.30802 -1.86606,-2.54463 -1.86606,-5.96574 0,-4.55206 3.39284,-7.37943 3.42111,-2.82736 9.16067,-2.82736 5.88092,0 9.27376,2.77081 3.42111,2.77082 3.42111,7.49252 0,3.42112 -1.89434,5.96575 -1.89433,2.54462 -5.17408,3.19492 l 0,0.11309 q 3.81695,0.62202 5.93747,3.25147 2.12053,2.60118 2.12053,6.53122 z m -6.27675,-18.77371 q 0,-6.7574 -7.4077,-6.7574 -3.59076,0 -5.48509,1.69642 -1.86606,1.69642 -1.86606,5.06098 0,3.42111 1.92261,5.23063 1.95088,1.78124 5.48508,1.78124 3.59076,0 5.45682,-1.63987 1.89434,-1.66815 1.89434,-5.372 z m 0.98957,18.29306 q 0,-3.70385 -2.20534,-5.56991 -2.20535,-1.89434 -6.19193,-1.89434 -3.87349,0 -6.05057,2.0357 -2.17707,2.00743 -2.17707,5.54164 0,8.22764 8.39728,8.22764 4.15623,0 6.19193,-1.97916 2.0357,-2.00743 2.0357,-6.36157 z"
         style=""
         id="path4682" />
    </g>
    <g
       style="font-style:normal;font-variant:normal;font-weight:normal;font-stretch:normal;font-size:57.90444946px;line-height:125%;font-family:'Liberation Sans';-inkscape-font-specification:'Liberation Sans';letter-spacing:0px;word-spacing:0px;fill:#000000;fill-opacity:1;stroke:none;stroke-width:1px;stroke-linecap:butt;stroke-linejoin:miter;stroke-opacity:1"
       id="text4393-4-31-1-4-7-6-9">
      <path
         d="m 409.76343,462.61913 q 0,6.30503 -3.76039,9.92406 -3.73213,3.61902 -10.37644,3.61902 -5.56991,0 -8.99102,-2.43153 -3.42111,-2.43154 -4.32587,-7.04014 l 5.14581,-0.59375 q 1.6116,5.9092 8.28418,5.9092 4.09968,0 6.41812,-2.45981 2.31844,-2.48808 2.31844,-6.81395 0,-3.7604 -2.34671,-6.07884 -2.31844,-2.31844 -6.27676,-2.31844 -2.06397,0 -3.84521,0.65029 -1.78124,0.6503 -3.56248,2.20535 l -4.97617,0 1.32886,-21.43143 22.6472,0 0,4.32587 -18.01032,0 -0.76339,12.63832 q 3.30802,-2.54463 8.22764,-2.54463 5.88092,0 9.35858,3.44939 3.50593,3.44939 3.50593,8.99102 z"
         style=""
         id="path4679" />
    </g>
    <g
       style="font-style:normal;font-variant:normal;font-weight:normal;font-stretch:normal;font-size:57.90444946px;line-height:125%;font-family:'Liberation Sans';-inkscape-font-specification:'Liberation Sans';letter-spacing:0px;word-spacing:0px;fill:#000000;fill-opacity:1;stroke:none;stroke-width:1px;stroke-linecap:butt;stroke-linejoin:miter;stroke-opacity:1"
       id="text4393-4-31-1-4-7-2">
      <path
         d="m 233.62431,550.94153 0,-3.59076 q 1.44196,-3.30801 3.50594,-5.82437 2.09225,-2.54463 4.38241,-4.58033 2.29017,-2.06398 4.52379,-3.81695 2.26189,-1.75296 4.07141,-3.50593 1.80951,-1.75297 2.91218,-3.67557 1.13095,-1.92261 1.13095,-4.35415 0,-3.27974 -1.92261,-5.08926 -1.92261,-1.80951 -5.34372,-1.80951 -3.25147,0 -5.372,1.78124 -2.09225,1.75297 -2.4598,4.94789 l -5.20236,-0.48065 q 0.56548,-4.77825 4.04314,-7.60562 3.50593,-2.82736 8.99102,-2.82736 6.02229,0 9.24549,2.85564 3.25147,2.82736 3.25147,8.05799 0,2.31844 -1.0744,4.60861 -1.04613,2.29016 -3.13838,4.58033 -2.09225,2.29017 -8.00144,7.09669 -3.25147,2.65772 -5.17408,4.80652 -1.92261,2.12052 -2.77082,4.09968 l 20.78114,0 0,4.32587 -26.37933,0 z"
         style=""
         id="path4676" />
    </g>
    <g
       style="font-style:normal;font-variant:normal;font-weight:normal;font-stretch:normal;font-size:57.90444946px;line-height:125%;font-family:'Liberation Sans';-inkscape-font-specification:'Liberation Sans';letter-spacing:0px;word-spacing:0px;fill:#ff0000;fill-opacity:1;stroke:none;stroke-width:1px;stroke-linecap:butt;stroke-linejoin:miter;stroke-opacity:1"
       id="text4393-4-31-1-4-7-1">
      <path
         d="m 368.01726,550.36194 0,-4.32587 10.15024,0 0,-30.64865 -8.99102,6.41812 0,-4.80652 9.41513,-6.47466 4.69342,0 0,35.51171 9.69787,0 0,4.32587 -24.96564,0 z"
         style=""
         id="path4671" />
      <path
         d="m 425.6107,537.38433 q 0,6.30503 -3.7604,9.92405 -3.73212,3.61903 -10.37643,3.61903 -5.56991,0 -8.99103,-2.43153 -3.42111,-2.43154 -4.32586,-7.04014 l 5.1458,-0.59375 q 1.6116,5.90919 8.28418,5.90919 4.09968,0 6.41812,-2.4598 2.31844,-2.48809 2.31844,-6.81396 0,-3.76039 -2.34671,-6.07883 -2.31844,-2.31844 -6.27675,-2.31844 -2.06398,0 -3.84522,0.65029 -1.78124,0.6503 -3.56248,2.20535 l -4.97616,0 1.32886,-21.43143 22.6472,0 0,4.32587 -18.01032,0 -0.76339,12.63832 q 3.30802,-2.54463 8.22763,-2.54463 5.88092,0 9.35858,3.44939 3.50594,3.44938 3.50594,8.99102 z"
         style=""
         id="path4673" />
    </g>
    <g
       style="font-style:normal;font-variant:normal;font-weight:normal;font-stretch:normal;font-size:57.90444946px;line-height:125%;font-family:'Liberation Sans';-inkscape-font-specification:'Liberation Sans';letter-spacing:0px;word-spacing:0px;fill:#ffffff;fill-opacity:1;stroke:none;stroke-width:1px;stroke-linecap:butt;stroke-linejoin:miter;stroke-opacity:1"
       id="text4393-4-31-1-4-7-2-9">
      <path
         d="m 335.54078,539.66036 q 0,5.51336 -3.50593,8.53865 -3.50594,3.02528 -10.00888,3.02528 -6.05056,0 -9.66959,-2.71427 -3.59075,-2.74255 -4.26932,-8.08627 l 5.2589,-0.48065 q 1.01785,7.06841 8.68001,7.06841 3.84522,0 6.02229,-1.89433 2.20535,-1.89434 2.20535,-5.62646 0,-3.25147 -2.51636,-5.06099 -2.48808,-1.83778 -7.20978,-1.83778 l -2.88391,0 0,-4.41069 2.77081,0 q 4.1845,0 6.47467,-1.80952 2.31844,-1.83779 2.31844,-5.06098 0,-3.19493 -1.89433,-5.03271 -1.86607,-1.86606 -5.56991,-1.86606 -3.36457,0 -5.45682,1.72469 -2.06398,1.72469 -2.40326,4.86307 l -5.11753,-0.39583 q 0.56547,-4.89135 4.04313,-7.63389 3.50593,-2.74255 8.99102,-2.74255 5.99402,0 9.30204,2.7991 3.33629,2.77081 3.33629,7.74698 0,3.81694 -2.1488,6.2202 -2.12052,2.37499 -6.19193,3.2232 l 0,0.11309 q 4.46724,0.48066 6.95532,2.99701 2.48808,2.51636 2.48808,6.3333 z"
         style=""
         id="path4668" />
    </g>
  </g>
</svg>
